<svg width="318" height="366" viewBox="0 0 318 366" fill="none" xmlns="http://www.w3.org/2000/svg">
<path d="M242.371 64.84C224.701 70.6 224.491 69.79 224.491 69.79L218.391 59.79C229.502 57.1872 239.445 50.9943 246.681 42.17C249.291 38.98 251.291 36.45 252.831 34.44C251.059 34.169 249.359 33.5468 247.831 32.61C244.101 30.18 242.491 25.61 240.121 21.88C238.716 19.6557 236.975 17.6621 234.961 15.97C234.961 15.97 224.011 21.21 220.541 35.65C217.071 50.09 214.411 53.98 214.411 53.98L204.581 46.47C204.581 46.47 204.581 46.01 204.521 45.19C204.401 39.62 205.081 17.58 223.111 10.45C221.788 10.241 220.449 10.1539 219.111 10.19C210.741 10.46 202.601 16.3 200.431 24.39C199.833 26.8397 199.578 29.3602 199.671 31.88C199.795 40.1924 201.766 48.3731 205.441 55.83L223.581 74.88C235.761 74.03 248.421 73.05 259.011 66.97C264.471 63.83 269.361 59.12 271.091 53.07C271.581 51.3044 271.753 49.4659 271.601 47.64C264.161 53.51 252.861 61.42 242.371 64.84Z" fill="#386641"/>
<path d="M204.511 45.19C204.511 46.01 204.571 46.47 204.571 46.47L214.411 53.98C214.411 53.98 217.071 50.1 220.541 35.65C224.011 21.2 234.961 15.97 234.961 15.97C231.582 13.0882 227.482 11.1801 223.101 10.45C205.071 17.57 204.391 39.62 204.511 45.19Z" fill="#386641"/>
<path opacity="0.2" d="M204.511 45.19C204.511 46.01 204.571 46.47 204.571 46.47L214.411 53.98C214.411 53.98 217.071 50.1 220.541 35.65C224.011 21.2 234.961 15.97 234.961 15.97C231.582 13.0882 227.482 11.1801 223.101 10.45C205.071 17.57 204.391 39.62 204.511 45.19Z" fill="white"/>
<path d="M218.391 59.81L224.491 69.81C224.491 69.81 224.701 70.62 242.371 64.86C252.861 61.44 264.161 53.53 271.621 47.66C271.251 43.15 268.981 38.81 264.981 36.8C261.301 34.94 256.861 35.21 252.831 34.46C251.291 36.46 249.291 39 246.681 42.19C239.445 51.0143 229.502 57.2072 218.391 59.81Z" fill="#386641"/>
<path opacity="0.2" d="M218.391 59.81L224.491 69.81C224.491 69.81 224.701 70.62 242.371 64.86C252.861 61.44 264.161 53.53 271.621 47.66C271.251 43.15 268.981 38.81 264.981 36.8C261.301 34.94 256.861 35.21 252.831 34.46C251.291 36.46 249.291 39 246.681 42.19C239.445 51.0143 229.502 57.2072 218.391 59.81Z" fill="white"/>
<g opacity="0.3">
<path d="M219.581 52.73C213.981 46.37 208.371 42.73 199.911 42.17L194.411 44.82C207.971 52.3413 219.7 62.7666 228.761 75.35C229.231 66.89 225.171 59.09 219.581 52.73Z" fill="black"/>
</g>
<path d="M274.921 151.5C274.741 142.018 276.476 132.597 280.021 123.8C277.146 132.695 276.092 142.078 276.921 151.39L274.921 151.5Z" fill="#263238"/>
<path d="M270.001 153.77C267.174 149.926 263.691 146.612 259.711 143.98C264.117 146.097 268.115 148.974 271.521 152.48L270.001 153.77Z" fill="#263238"/>
<path d="M294.471 159.88L308.071 145.72L295.981 161.19L294.471 159.88Z" fill="#263238"/>
<path d="M298.301 163.8C293.991 156.96 286.691 151.88 278.651 151.09C266.751 149.92 255.191 158.66 251.221 169.94C248.931 176.45 248.641 183.94 244.271 189.27C240.701 193.62 235.111 195.66 229.791 197.51L210.791 232.34C229.711 236.91 250.161 237.57 268.181 230.21C286.201 222.85 301.181 206.42 303.181 187.07C304.051 179.04 302.581 170.64 298.301 163.8Z" fill="#386641"/>
<g opacity="0.2">
<path d="M280.991 151.44C271.651 149.1 262.991 155.14 262.991 155.14L263.081 155.33C263.981 169.62 265.391 182.82 257.371 194.68C252.371 202.03 243.371 207.07 235.081 210.32L232.941 225.32C248.811 224.139 263.826 217.667 275.581 206.94C287.201 196.25 295.831 179.39 298.271 163.8C298.301 163.8 294.581 154.85 280.991 151.44Z" fill="white"/>
</g>
<path d="M98.361 145.74C89.661 142.37 87.361 131.13 87.881 121.81C88.401 112.49 90.451 102.44 85.801 94.35C83.6486 90.8508 80.685 87.9216 77.161 85.81C71.321 82.06 64.361 79.81 57.441 80.41C46.701 81.33 37.311 89.15 32.661 98.87C28.011 108.59 27.601 119.87 29.511 130.53C33.0431 150.029 43.9186 167.431 59.8974 179.152C75.8762 190.872 95.7414 196.018 115.401 193.53L98.361 145.74Z" fill="#386641"/>
<g opacity="0.2">
<path d="M103.891 172.3L104.301 162.39L104.241 162.22C97.3249 160.126 91.0019 156.426 85.7882 151.423C80.5744 146.42 76.6177 140.254 74.241 133.43C69.891 120.61 75.531 102.66 83.301 90.88C81.5031 88.9253 79.4515 87.2202 77.201 85.81C71.361 82.06 64.401 79.81 57.481 80.41C56.761 80.47 56.051 80.57 55.351 80.69C49.441 98.56 49.621 125.15 58.351 140.69C63.1218 149.007 69.6832 156.158 77.5598 161.626C85.4364 167.093 94.4308 170.739 103.891 172.3Z" fill="white"/>
</g>
<g opacity="0.2">
<path d="M109.581 190.96C87.654 185.902 68.2861 173.107 55.0314 154.922C41.7767 136.737 35.5241 114.383 37.421 91.96L36.421 92.88C34.9839 94.7489 33.7408 96.7593 32.711 98.88C28.061 108.6 27.651 119.88 29.561 130.54C32.5536 147.182 40.9244 162.382 53.3887 173.808C65.8531 185.233 81.7223 192.253 98.561 193.79L109.581 190.96Z" fill="white"/>
</g>
<path opacity="0.3" d="M92.861 141.74C91.961 142.62 90.731 192.65 90.731 192.65L97.931 193.74L95.931 144.46C94.7592 143.736 93.7207 142.816 92.861 141.74Z" fill="black"/>
<path opacity="0.3" d="M235.091 195.5L240.181 192.87L236.661 235.77C236.661 235.77 228.391 236.11 225.261 234.54C222.131 232.97 235.091 195.5 235.091 195.5Z" fill="black"/>
<path d="M109.891 268.41C109.891 268.41 89.141 192.01 96.831 114.71C104.441 38.13 155.071 33.45 174.051 33.45C193.031 33.45 249.411 58.45 240.921 159.89C234.921 231.3 222.851 268.41 222.851 268.41H109.891Z" fill="#386641"/>
<g opacity="0.2">
<path d="M137.241 154.08C137.071 135.2 138.241 116.34 139.491 97.49C140.651 79.35 142.021 54.49 149.491 36.81C145.242 38.0758 141.127 39.7503 137.201 41.81L128.201 48.44C116.931 58.33 113.371 74.57 111.581 89.68C107.831 122.1 109.371 154.92 112.331 187.41C114.841 214.94 118.471 242.71 128.331 268.41H149.581C143.521 230.57 137.581 192.46 137.241 154.08Z" fill="white"/>
</g>
<g opacity="0.2">
<path d="M166.971 33.7C165.101 109.54 163.901 193.78 174.501 268.3L189.811 267.99C202.281 194.99 203.241 112.12 192.561 38.39C185.191 34.87 178.561 33.45 174.051 33.45C172.021 33.45 169.631 33.51 166.971 33.7Z" fill="white"/>
</g>
<g opacity="0.2">
<path d="M232.481 84.31C231.901 82.9 231.341 81.52 230.791 80.21C228.635 75.2584 226.069 70.4952 223.121 65.97C226.311 116.79 221.531 176.69 214.451 226.68C212.451 240.76 210.021 254.92 204.791 268.15L206.681 268.41H222.851C222.851 268.41 234.951 231.3 240.921 159.89C243.641 127.43 239.701 102.8 232.481 84.31Z" fill="white"/>
</g>
<path d="M282.851 40.21C285.702 39.7558 288.324 38.3745 290.311 36.28C291.021 35.49 291.541 34.14 290.711 33.47C290.349 33.235 289.923 33.1164 289.491 33.13C285.795 32.8805 282.082 33.2181 278.491 34.13C276.948 34.4235 275.508 35.1127 274.311 36.13C277.337 32.9122 279.299 28.8413 279.931 24.47C280.101 23.3 280.071 21.88 279.091 21.21C278.619 20.9787 278.096 20.8711 277.572 20.8974C277.047 20.9236 276.537 21.0828 276.091 21.36C271.461 23.48 268.431 28.06 266.451 32.75L263.341 33.75C262.991 29.87 262.591 25.84 260.591 22.49C259.669 20.7707 258.129 19.466 256.281 18.84C255.351 18.5613 254.355 18.6075 253.455 18.971C252.555 19.3346 251.806 19.9938 251.331 20.84C251.088 21.4381 250.976 22.0812 251.002 22.7262C251.028 23.3712 251.191 24.0033 251.481 24.58C252.067 25.7252 252.811 26.7823 253.691 27.72L259.871 34.93C257.202 33.812 254.308 33.3326 251.421 33.53C248.513 33.743 245.796 35.0552 243.821 37.2C242.901 38.26 242.191 39.76 242.731 41.06C243.064 41.7658 243.624 42.3397 244.321 42.69C246.541 43.95 249.321 43.78 251.811 43.35C254.942 42.8169 258.006 41.9486 260.951 40.76C257.451 41.84 255.241 45.6 255.161 49.26C255.091 50.4041 255.271 51.5498 255.689 52.6172C256.107 53.6846 256.752 54.6479 257.581 55.44C260.421 57.88 265.151 56.96 267.581 54.14C270.011 51.32 270.521 47.21 269.831 43.53C272.582 46.8971 276.213 49.4346 280.321 50.86C281.235 51.2272 282.216 51.4009 283.201 51.37C283.692 51.3485 284.172 51.2091 284.598 50.9638C285.024 50.7184 285.386 50.3741 285.651 49.96C285.916 49.3211 285.992 48.6195 285.869 47.9388C285.747 47.258 285.432 46.6267 284.961 46.12C283.464 44.4691 281.571 43.2267 279.461 42.51C277.761 41.81 276.031 41.19 274.271 40.65C277.138 40.8603 280.02 40.7124 282.851 40.21Z" fill="#386641"/>
<path d="M282.851 40.21C285.702 39.7558 288.324 38.3745 290.311 36.28C291.021 35.49 291.541 34.14 290.711 33.47C290.349 33.235 289.923 33.1164 289.491 33.13C285.795 32.8805 282.082 33.2181 278.491 34.13C276.948 34.4235 275.508 35.1127 274.311 36.13C277.337 32.9122 279.299 28.8413 279.931 24.47C280.101 23.3 280.071 21.88 279.091 21.21C278.619 20.9787 278.096 20.8711 277.572 20.8974C277.047 20.9236 276.537 21.0828 276.091 21.36C271.461 23.48 268.431 28.06 266.451 32.75L263.341 33.75C262.991 29.87 262.591 25.84 260.591 22.49C259.669 20.7707 258.129 19.466 256.281 18.84C255.351 18.5613 254.355 18.6075 253.455 18.971C252.555 19.3346 251.806 19.9938 251.331 20.84C251.088 21.4381 250.976 22.0812 251.002 22.7262C251.028 23.3712 251.191 24.0033 251.481 24.58C252.067 25.7252 252.811 26.7823 253.691 27.72L259.871 34.93C257.202 33.812 254.308 33.3326 251.421 33.53C248.513 33.743 245.796 35.0552 243.821 37.2C242.901 38.26 242.191 39.76 242.731 41.06C243.064 41.7658 243.624 42.3397 244.321 42.69C246.541 43.95 249.321 43.78 251.811 43.35C254.942 42.8169 258.006 41.9486 260.951 40.76C257.451 41.84 255.241 45.6 255.161 49.26C255.091 50.4041 255.271 51.5498 255.689 52.6172C256.107 53.6846 256.752 54.6479 257.581 55.44C260.421 57.88 265.151 56.96 267.581 54.14C270.011 51.32 270.521 47.21 269.831 43.53C272.582 46.8971 276.213 49.4346 280.321 50.86C281.235 51.2272 282.216 51.4009 283.201 51.37C283.692 51.3485 284.172 51.2091 284.598 50.9638C285.024 50.7184 285.386 50.3741 285.651 49.96C285.916 49.3211 285.992 48.6195 285.869 47.9388C285.747 47.258 285.432 46.6267 284.961 46.12C283.464 44.4691 281.571 43.2267 279.461 42.51C277.761 41.81 276.031 41.19 274.271 40.65C277.138 40.8603 280.02 40.7124 282.851 40.21Z" fill="#D4827D"/>
<path d="M287.141 39.87C282.238 37.2055 276.577 36.2819 271.081 37.25C275.918 35.9073 280.54 33.8873 284.811 31.25C285.999 30.6825 286.916 29.6691 287.361 28.43C287.446 27.7374 287.311 27.0355 286.976 26.4237C286.64 25.8118 286.121 25.3208 285.491 25.02C284.209 24.4574 282.786 24.2971 281.411 24.56C277.321 25.12 271.661 30.9 268.411 35.45L270.961 29.93C272.321 27.07 273.081 23.69 271.871 20.77C270.661 17.85 266.921 15.89 264.181 17.47C261.611 18.96 261.181 22.47 261.181 25.41C261.181 29.55 261.531 33.96 264.021 37.26C261.928 33.9363 258.99 31.2272 255.508 29.4089C252.027 27.5907 248.125 26.7284 244.201 26.91C243.648 26.8852 243.096 26.9755 242.579 27.1752C242.063 27.3749 241.594 27.6796 241.201 28.07C240.868 28.5762 240.7 29.1735 240.722 29.7792C240.743 30.3848 240.953 30.9687 241.321 31.45C242.068 32.4042 243.036 33.1627 244.141 33.66C249.585 36.5226 255.613 38.0965 261.761 38.26C255.891 41.02 249.201 44.53 247.271 50.59C246.816 51.6447 246.787 52.8347 247.191 53.91C248.191 55.78 250.971 55.55 252.831 54.55C258.511 51.48 264.651 47.34 265.301 40.91C266.544 44.3388 268.018 47.6798 269.711 50.91C270.551 52.8055 271.838 54.4696 273.461 55.76C275.171 56.93 277.651 57.22 279.231 55.88C279.859 55.2732 280.307 54.5049 280.526 53.6596C280.744 52.8144 280.726 51.9252 280.471 51.09C279.935 49.4243 279.001 47.9142 277.751 46.69C275.152 43.8824 272.039 41.598 268.581 39.96C272.999 41.7536 277.661 42.876 282.411 43.29C284.153 43.5954 285.947 43.3471 287.541 42.58C287.773 42.4732 287.976 42.312 288.133 42.1101C288.29 41.9082 288.395 41.6715 288.441 41.42C288.421 40.71 287.751 40.2 287.141 39.87Z" fill="#EEC1BB"/>
<path d="M265.551 40.93C267.009 40.93 268.191 39.748 268.191 38.29C268.191 36.832 267.009 35.65 265.551 35.65C264.093 35.65 262.911 36.832 262.911 38.29C262.911 39.748 264.093 40.93 265.551 40.93Z" fill="white"/>
<path d="M42.161 128.98C45.0107 128.522 47.6313 127.141 49.621 125.05C50.331 124.25 50.851 122.9 50.021 122.24C49.6594 122.002 49.2338 121.88 48.801 121.89C45.1047 121.651 41.3936 121.988 37.801 122.89C36.2597 123.189 34.8206 123.877 33.621 124.89C36.6449 121.671 38.6068 117.601 39.241 113.23C39.411 112.05 39.381 110.64 38.401 109.96C37.9278 109.734 37.4058 109.63 36.8821 109.656C36.3583 109.682 35.8494 109.838 35.401 110.11C30.771 112.24 27.741 116.82 25.761 121.51L22.651 122.51C22.301 118.63 21.901 114.6 19.901 111.25C18.9793 109.531 17.4386 108.226 15.591 107.6C14.6615 107.319 13.6641 107.365 12.7639 107.728C11.8636 108.092 11.1147 108.752 10.641 109.6C10.3981 110.198 10.2858 110.841 10.3117 111.486C10.3375 112.131 10.501 112.763 10.791 113.34C11.3765 114.488 12.1204 115.549 13.001 116.49L19.181 123.69C16.5123 122.57 13.6177 122.094 10.731 122.3C7.82332 122.513 5.10586 123.825 3.13102 125.97C2.21102 127.03 1.50101 128.52 2.04101 129.83C2.39083 130.467 2.92863 130.98 3.58101 131.3C5.80101 132.56 8.58101 132.39 11.071 131.96C14.202 131.428 17.2665 130.56 20.211 129.37C16.711 130.45 14.501 134.2 14.421 137.86C14.352 139.004 14.5327 140.149 14.9506 141.216C15.3684 142.284 16.0135 143.247 16.841 144.04C19.681 146.48 24.411 145.56 26.841 142.74C29.271 139.92 29.781 135.82 29.091 132.14C31.8419 135.507 35.4733 138.045 39.581 139.47C40.4968 139.833 41.4764 140.006 42.461 139.98C42.9525 139.958 43.4316 139.819 43.8579 139.574C44.2843 139.328 44.6455 138.984 44.911 138.57C45.176 137.931 45.2518 137.23 45.1294 136.549C45.0071 135.868 44.6918 135.237 44.221 134.73C42.7293 133.073 40.8347 131.829 38.721 131.12C37.021 130.42 35.291 129.8 33.531 129.26C36.4082 129.522 39.3069 129.428 42.161 128.98Z" fill="#386641"/>
<path d="M42.161 128.98C45.0107 128.522 47.6313 127.141 49.621 125.05C50.331 124.25 50.851 122.9 50.021 122.24C49.6594 122.002 49.2338 121.88 48.801 121.89C45.1047 121.651 41.3936 121.988 37.801 122.89C36.2597 123.189 34.8206 123.877 33.621 124.89C36.6449 121.671 38.6068 117.601 39.241 113.23C39.411 112.05 39.381 110.64 38.401 109.96C37.9278 109.734 37.4058 109.63 36.8821 109.656C36.3583 109.682 35.8494 109.838 35.401 110.11C30.771 112.24 27.741 116.82 25.761 121.51L22.651 122.51C22.301 118.63 21.901 114.6 19.901 111.25C18.9793 109.531 17.4386 108.226 15.591 107.6C14.6615 107.319 13.6641 107.365 12.7639 107.728C11.8636 108.092 11.1147 108.752 10.641 109.6C10.3981 110.198 10.2858 110.841 10.3117 111.486C10.3375 112.131 10.501 112.763 10.791 113.34C11.3765 114.488 12.1204 115.549 13.001 116.49L19.181 123.69C16.5123 122.57 13.6177 122.094 10.731 122.3C7.82332 122.513 5.10586 123.825 3.13102 125.97C2.21102 127.03 1.50101 128.52 2.04101 129.83C2.39083 130.467 2.92863 130.98 3.58101 131.3C5.80101 132.56 8.58101 132.39 11.071 131.96C14.202 131.428 17.2665 130.56 20.211 129.37C16.711 130.45 14.501 134.2 14.421 137.86C14.352 139.004 14.5327 140.149 14.9506 141.216C15.3684 142.284 16.0135 143.247 16.841 144.04C19.681 146.48 24.411 145.56 26.841 142.74C29.271 139.92 29.781 135.82 29.091 132.14C31.8419 135.507 35.4733 138.045 39.581 139.47C40.4968 139.833 41.4764 140.006 42.461 139.98C42.9525 139.958 43.4316 139.819 43.8579 139.574C44.2843 139.328 44.6455 138.984 44.911 138.57C45.176 137.931 45.2518 137.23 45.1294 136.549C45.0071 135.868 44.6918 135.237 44.221 134.73C42.7293 133.073 40.8347 131.829 38.721 131.12C37.021 130.42 35.291 129.8 33.531 129.26C36.4082 129.522 39.3069 129.428 42.161 128.98Z" fill="#D4827D"/>
<path d="M46.451 128.63C41.545 125.975 35.8867 125.051 30.391 126.01C35.2293 124.672 39.8524 122.652 44.121 120.01C45.3092 119.442 46.2255 118.429 46.671 117.19C46.7575 116.497 46.6233 115.795 46.2876 115.183C45.9519 114.57 45.4317 114.08 44.801 113.78C43.5202 113.212 42.096 113.052 40.721 113.32C36.631 113.88 30.971 119.65 27.721 124.21L30.271 118.69C31.631 115.83 32.391 112.45 31.191 109.53C29.991 106.61 26.191 104.65 23.491 106.23C20.921 107.72 20.491 111.23 20.491 114.17C20.491 118.3 20.841 122.72 23.331 126.01C21.2344 122.682 18.2921 119.971 14.8047 118.153C11.3172 116.334 7.40964 115.474 3.48102 115.66C2.92791 115.635 2.37568 115.725 1.85928 115.925C1.34288 116.125 0.873561 116.43 0.481019 116.82C0.147805 117.326 -0.0196626 117.923 0.00183923 118.529C0.0233411 119.135 0.232742 119.719 0.601014 120.2C1.35091 121.151 2.31792 121.909 3.42101 122.41C8.86811 125.263 14.8943 126.837 21.041 127.01C15.171 129.77 8.48102 133.27 6.55102 139.34C6.0965 140.391 6.06782 141.578 6.47102 142.65C7.47102 144.53 10.251 144.29 12.111 143.29C17.791 140.22 23.931 136.09 24.581 129.66C25.8218 133.09 27.2952 136.431 28.991 139.66C29.8311 141.559 31.1176 143.226 32.741 144.52C34.451 145.69 36.931 145.97 38.511 144.64C39.1378 144.033 39.5852 143.264 39.8039 142.419C40.0227 141.574 40.0044 140.685 39.751 139.85C39.2175 138.183 38.2836 136.672 37.031 135.45C34.4315 132.642 31.3189 130.358 27.861 128.72C32.2791 130.514 36.9407 131.636 41.691 132.05C43.4334 132.345 45.2244 132.098 46.821 131.34C47.0532 131.233 47.2563 131.072 47.4129 130.87C47.5696 130.668 47.6753 130.431 47.721 130.18C47.731 129.47 47.061 128.97 46.451 128.63Z" fill="#EEC1BB"/>
<path d="M24.861 129.7C26.319 129.7 27.501 128.518 27.501 127.06C27.501 125.602 26.319 124.42 24.861 124.42C23.403 124.42 22.221 125.602 22.221 127.06C22.221 128.518 23.403 129.7 24.861 129.7Z" fill="white"/>
<path d="M131.081 46.57L130.461 30.39L133.071 46.38L131.081 46.57Z" fill="#263238"/>
<path d="M126.331 49.37C124.928 45.3315 122.736 41.6126 119.881 38.43C123.288 41.2252 126.103 44.6726 128.161 48.57L126.331 49.37Z" fill="#263238"/>
<path d="M219.121 14.51C216.931 10.57 214.441 6.71 212.241 2.75C215.031 6.39 218.001 9.75 220.801 13.43L219.121 14.51Z" fill="#263238"/>
<path d="M231.531 104.79L249.451 99.83L232.161 106.68L231.531 104.79Z" fill="#263238"/>
<path d="M223.851 15.04L227.231 0L225.831 15.35L223.851 15.04Z" fill="#263238"/>
<path d="M231.581 114C238.826 114.389 246.026 115.393 253.101 117C245.966 116.059 238.763 115.724 231.571 116V114H231.581Z" fill="#263238"/>
<path d="M123.131 210.67L113.801 191.01L124.901 209.74L123.131 210.67Z" fill="#263238"/>
<path d="M119.461 215.37L99.501 210.2L119.871 213.41L119.461 215.37Z" fill="#263238"/>
<path d="M214.071 190.05C220.14 188.504 225.968 186.132 231.391 183C226.257 186.753 220.631 189.781 214.671 192L214.071 190.09V190.05Z" fill="#263238"/>
<path d="M208.581 188L212.011 173.88L210.561 188.34L208.581 188Z" fill="#263238"/>
<path d="M187.271 71.37L196.951 58.77L188.931 72.48L187.271 71.37Z" fill="#263238"/>
<path d="M41.051 90.34C39.3758 83.8908 38.6814 77.2261 38.991 70.57C39.3569 77.1145 40.7053 83.5667 42.991 89.71L41.081 90.31L41.051 90.34Z" fill="#263238"/>
<path d="M34.371 95.57C29.4979 91.5896 24.3408 87.97 18.941 84.74C24.7069 87.3998 30.2687 90.4815 35.581 93.96L34.371 95.57Z" fill="#263238"/>
<path d="M67.481 81.39C69.0314 75.8592 71.1354 70.4988 73.761 65.39C71.7679 70.7164 70.3205 76.2313 69.441 81.85L67.441 81.43L67.481 81.39Z" fill="#263238"/>
<path d="M41.661 161.18C36.1098 162.75 30.4142 163.755 24.661 164.18C30.2435 163.086 35.7012 161.431 40.951 159.24L41.611 161.13L41.661 161.18Z" fill="#263238"/>
<path d="M45.091 164.41C41.6057 167.138 37.7844 169.406 33.721 171.16C37.3938 168.857 40.7548 166.091 43.721 162.93L45.071 164.41H45.091Z" fill="#263238"/>
<path d="M197.281 233.57C194.538 228.51 192.32 223.182 190.661 217.67C192.92 222.891 195.708 227.867 198.981 232.52L197.281 233.57Z" fill="#263238"/>
<path d="M76.371 87.84L90.401 78.39L77.591 89.43L76.371 87.84Z" fill="#263238"/>
<path d="M224.071 45.25L238.101 35.8L225.281 46.84L224.071 45.25Z" fill="#263238"/>
<path d="M300.991 168.69L317.201 164.34L301.621 170.59L300.991 168.69Z" fill="#263238"/>
<path d="M249.801 264.07H82.601V297.9H249.801V264.07Z" fill="#263238"/>
<path d="M177.711 284.78H92.711C94.711 286.3 103.381 365.44 103.381 365.44H231.281C231.281 365.44 237.661 286.3 239.651 284.78H177.711Z" fill="#263238"/>
<path d="M233.501 339.17H100.231L99.671 333.78L234.041 333.53L233.501 339.17Z" fill="#386641"/>
<path d="M234.441 329.64H99.431L98.861 324.25L234.991 324L234.441 329.64Z" fill="#386641"/>
<path opacity="0.3" d="M95.241 297.9H237.521L236.831 304.12L96.831 309.7L95.241 297.9Z" fill="black"/>
<path d="M185.581 143.73C174.331 146.2 160.851 147.98 149.351 147.63L148.231 147.98C149.891 155.17 153.231 164.85 159.991 167.79C166.751 170.73 175.271 169.66 180.661 164.62C186.051 159.58 185.581 150.94 185.581 143.73Z" fill="#263238"/>
<path d="M158.511 167C171.511 173.86 182.101 165.8 183.941 159.73C179.051 159.83 174.741 159.39 168.251 161.49C164.63 162.567 161.3 164.451 158.511 167Z" fill="#DC5753"/>
<path d="M204.111 130.75C204.701 138.28 201.301 144.97 196.511 145.69C191.721 146.41 187.361 140.87 186.761 133.34C186.161 125.81 189.571 119.11 194.361 118.34C199.151 117.57 203.511 123.21 204.111 130.75Z" fill="#263238"/>
<path d="M206.161 114.95C205.88 114.982 205.596 114.953 205.327 114.867C205.059 114.781 204.811 114.639 204.601 114.45C202.713 112.638 200.403 111.324 197.881 110.625C195.359 109.927 192.702 109.867 190.151 110.45C189.889 110.53 189.613 110.555 189.341 110.524C189.069 110.492 188.807 110.406 188.569 110.269C188.332 110.132 188.126 109.948 187.962 109.728C187.799 109.508 187.683 109.257 187.621 108.99C187.505 108.42 187.605 107.828 187.9 107.328C188.196 106.827 188.666 106.454 189.221 106.28C192.443 105.484 195.814 105.512 199.023 106.361C202.232 107.21 205.175 108.854 207.581 111.14C207.978 111.55 208.2 112.099 208.2 112.67C208.2 113.241 207.978 113.79 207.581 114.2C207.215 114.615 206.71 114.882 206.161 114.95Z" fill="#263238"/>
<path d="M131.951 130.57C131.161 138.07 134.401 144.83 139.171 145.67C143.941 146.51 148.441 141.1 149.171 133.59C149.901 126.08 146.721 119.33 141.951 118.5C137.181 117.67 132.731 123.02 131.951 130.57Z" fill="#263238"/>
<path d="M130.741 105.77C131.022 105.8 131.307 105.77 131.576 105.682C131.845 105.594 132.092 105.451 132.301 105.26C134.194 103.452 136.506 102.141 139.028 101.443C141.551 100.745 144.208 100.682 146.761 101.26C147.022 101.338 147.297 101.362 147.568 101.33C147.839 101.298 148.1 101.211 148.336 101.074C148.572 100.938 148.778 100.754 148.94 100.535C149.103 100.316 149.219 100.066 149.281 99.8C149.399 99.2315 149.3 98.6396 149.004 98.1402C148.708 97.6408 148.236 97.2698 147.681 97.1C144.462 96.3069 141.095 96.3384 137.891 97.1913C134.687 98.0443 131.75 99.6913 129.351 101.98C128.954 102.39 128.732 102.939 128.732 103.51C128.732 104.081 128.954 104.63 129.351 105.04C129.714 105.439 130.206 105.697 130.741 105.77Z" fill="#263238"/>
<path d="M141.811 126.79C141.811 129.34 141.001 131.41 140.011 131.41C139.021 131.41 138.201 129.34 138.201 126.79C138.201 124.24 139.011 122.16 140.011 122.16C141.011 122.16 141.811 124.23 141.811 126.79Z" fill="white"/>
<path d="M194.351 126.57C194.351 129.12 193.541 131.2 192.541 131.2C191.541 131.2 190.741 129.12 190.741 126.57C190.741 124.02 191.551 121.94 192.541 121.94C193.531 121.94 194.351 124.01 194.351 126.57Z" fill="white"/>
<path d="M139.581 156.12C139.581 158.99 135.871 161.32 131.311 161.32C126.751 161.32 123.041 158.99 123.041 156.12C123.041 153.25 126.741 150.93 131.311 150.93C135.881 150.93 139.581 153.25 139.581 156.12Z" fill="#EEC1BB"/>
<path d="M204.501 158.32C209.068 158.32 212.771 155.996 212.771 153.13C212.771 150.264 209.068 147.94 204.501 147.94C199.934 147.94 196.231 150.264 196.231 153.13C196.231 155.996 199.934 158.32 204.501 158.32Z" fill="#EEC1BB"/>
</svg>
